<svg xmlns="http://www.w3.org/2000/svg" width="18" height="18" viewBox="0 0 18 18"><defs><clipPath id="lazfa"><path fill="#fff" d="M4.637 12.345v-6.69h8.726v6.69zm3.103-1.286l-2.297-2.41L5 9.113 7.74 12 13 6.466 12.557 6z"/></clipPath></defs><g><g><g><path fill="#ffab12" d="M18 9A9 9 0 1 1 0 9a9 9 0 0 1 18 0z"/></g><g><path fill="#fff" d="M12.557 6l.443.466L7.74 12 5 9.114l.443-.466 2.297 2.41z"/><path fill="none" stroke="#fff" stroke-miterlimit="20" d="M12.557 6v0l.443.466v0L7.74 12v0L5 9.114v0l.443-.466v0l2.297 2.41v0z" clip-path="url(&quot;#lazfa&quot;)"/></g></g></g></svg>